<svg width="1440" height="1024" viewBox="0 0 1440 1024" fill="none" xmlns="http://www.w3.org/2000/svg">
<rect width="1440" height="1024" fill="url(#paint0_radial)"/>
<g opacity="0.4">
<path d="M111.045 967.23C115.581 968.825 120.45 969.224 125.184 968.39C129.918 967.556 134.358 965.517 138.075 962.468C147.543 954.52 150.512 941.431 152.926 929.307L160.07 893.447L145.114 903.747C134.358 911.154 123.36 918.799 115.914 929.527C108.467 940.255 105.218 954.901 111.2 966.51" fill="#E6E6E6"/>
<path d="M113.355 1013.14C111.472 999.426 109.536 985.532 110.859 971.669C112.032 959.356 115.788 947.333 123.434 937.47C127.493 932.246 132.432 927.77 138.028 924.243C139.487 923.322 140.83 925.635 139.378 926.552C129.694 932.673 122.203 941.711 117.987 952.364C113.33 964.21 112.582 977.124 113.384 989.708C113.869 997.319 114.899 1004.88 115.934 1012.43C116.016 1012.77 115.965 1013.13 115.791 1013.44C115.618 1013.74 115.335 1013.97 115 1014.07C114.658 1014.17 114.294 1014.12 113.986 1013.95C113.678 1013.77 113.452 1013.48 113.356 1013.14L113.355 1013.14Z" fill="#F2F2F2"/>
<path d="M126.904 991.133C128.849 994.09 131.522 996.497 134.667 998.121C137.812 999.744 141.321 1000.53 144.858 1000.4C153.949 999.972 161.525 993.629 168.344 987.605L188.519 969.79L175.167 969.151C165.565 968.691 155.716 968.259 146.57 971.224C137.425 974.189 128.991 981.313 127.319 990.781" fill="#E6E6E6"/>
<path d="M108.034 1021.03C117.096 1004.99 127.607 987.165 146.39 981.468C151.612 979.89 157.088 979.324 162.523 979.802C164.236 979.95 163.808 982.59 162.098 982.443C152.989 981.687 143.897 984.093 136.353 989.256C129.261 994.402 123.249 1000.89 118.657 1008.35C115.726 1012.82 113.102 1017.47 110.477 1022.12C109.638 1023.6 107.185 1022.53 108.034 1021.03Z" fill="#F2F2F2"/>
<path d="M940.016 946.267C946.261 948.462 952.966 949.012 959.485 947.864C966.005 946.715 972.118 943.907 977.238 939.709C990.275 928.764 994.363 910.739 997.688 894.045L1007.53 844.663L986.93 858.846C972.118 869.046 956.974 879.573 946.719 894.347C936.465 909.12 931.991 929.289 940.228 945.275" fill="#E6E6E6"/>
<path d="M943.196 1009.49C940.603 990.602 937.936 971.469 939.759 952.379C941.374 935.424 946.546 918.867 957.076 905.285C962.665 898.091 969.466 891.927 977.172 887.071C979.182 885.803 981.031 888.987 979.031 890.25C965.695 898.679 955.381 911.125 949.574 925.795C943.161 942.108 942.131 959.891 943.236 977.221C943.904 987.7 945.323 998.111 946.748 1008.51C946.86 1008.98 946.79 1009.48 946.551 1009.9C946.312 1010.32 945.923 1010.63 945.461 1010.77C944.991 1010.9 944.489 1010.84 944.065 1010.6C943.641 1010.36 943.329 1009.96 943.197 1009.49L943.196 1009.49Z" fill="#F2F2F2"/>
<path d="M961.854 979.182C964.532 983.254 968.213 986.568 972.544 988.804C976.874 991.04 981.707 992.123 986.578 991.949C999.097 991.354 1009.53 982.619 1018.92 974.324L1046.7 949.791L1028.32 948.911C1015.09 948.278 1001.53 947.684 988.935 951.766C976.342 955.849 964.727 965.66 962.425 978.697" fill="#E6E6E6"/>
<path d="M935.868 1020.35C948.348 998.263 962.822 973.718 988.687 965.873C995.879 963.699 1003.42 962.921 1010.9 963.579C1013.26 963.783 1012.67 967.419 1010.32 967.216C997.774 966.174 985.253 969.487 974.865 976.597C964.868 983.402 957.084 992.864 950.497 1002.9C946.462 1009.04 942.847 1015.45 939.232 1021.85C938.077 1023.89 934.7 1022.42 935.868 1020.35Z" fill="#F2F2F2"/>
<path d="M823.049 613.963C821.733 613.39 820.674 612.353 820.073 611.049C819.472 609.745 819.371 608.266 819.79 606.893C819.858 606.682 819.9 606.464 819.917 606.244C819.955 605.615 819.79 604.99 819.446 604.462C819.101 603.934 818.596 603.532 818.005 603.313C817.413 603.095 816.767 603.073 816.163 603.251C815.558 603.429 815.027 603.796 814.647 604.3C814.517 604.478 814.408 604.672 814.323 604.876C813.75 606.192 812.713 607.251 811.409 607.853C810.105 608.454 808.626 608.554 807.253 608.135C807.043 608.068 806.825 608.025 806.604 608.008C805.975 607.97 805.351 608.135 804.823 608.48C804.295 608.824 803.893 609.33 803.674 609.921C803.456 610.513 803.434 611.158 803.612 611.763C803.79 612.368 804.157 612.899 804.661 613.279C804.839 613.409 805.032 613.518 805.236 613.603C806.553 614.177 807.612 615.214 808.213 616.518C808.814 617.822 808.915 619.301 808.496 620.674C808.428 620.885 808.385 621.102 808.369 621.323C808.33 621.952 808.496 622.577 808.84 623.105C809.185 623.632 809.69 624.035 810.281 624.253C810.872 624.472 811.518 624.493 812.123 624.316C812.728 624.138 813.259 623.77 813.638 623.267C813.769 623.089 813.878 622.895 813.963 622.691C814.536 621.375 815.573 620.315 816.877 619.714C818.18 619.113 819.659 619.012 821.032 619.431C821.243 619.499 821.461 619.542 821.681 619.558C822.31 619.597 822.935 619.431 823.463 619.087C823.99 618.742 824.393 618.237 824.611 617.646C824.829 617.054 824.851 616.408 824.674 615.804C824.496 615.199 824.128 614.667 823.625 614.288C823.447 614.157 823.253 614.049 823.049 613.963Z" fill="#CBCBCB"/>
<path d="M934.48 873.476C933.163 872.903 932.104 871.866 931.503 870.562C930.902 869.258 930.801 867.779 931.22 866.406C931.288 866.195 931.331 865.978 931.347 865.757C931.386 865.128 931.22 864.503 930.876 863.975C930.531 863.448 930.026 863.045 929.435 862.827C928.844 862.608 928.198 862.587 927.593 862.764C926.988 862.942 926.457 863.31 926.078 863.813C925.947 863.991 925.838 864.185 925.753 864.389C925.18 865.705 924.143 866.765 922.839 867.366C921.536 867.967 920.057 868.067 918.684 867.649C918.473 867.581 918.255 867.538 918.035 867.521C917.406 867.483 916.781 867.649 916.253 867.993C915.726 868.338 915.323 868.843 915.105 869.434C914.887 870.026 914.865 870.672 915.042 871.276C915.22 871.881 915.588 872.413 916.091 872.792C916.269 872.923 916.463 873.031 916.667 873.117C917.983 873.69 919.042 874.727 919.643 876.031C920.244 877.335 920.345 878.814 919.926 880.187C919.858 880.398 919.816 880.616 919.799 880.836C919.761 881.465 919.926 882.09 920.27 882.618C920.615 883.146 921.12 883.548 921.712 883.767C922.303 883.985 922.949 884.007 923.553 883.829C924.158 883.651 924.689 883.284 925.069 882.78C925.199 882.602 925.308 882.408 925.393 882.204C925.966 880.888 927.004 879.829 928.307 879.227C929.611 878.626 931.09 878.526 932.463 878.944C932.673 879.012 932.891 879.055 933.112 879.072C933.741 879.11 934.365 878.945 934.893 878.6C935.421 878.256 935.823 877.75 936.042 877.159C936.26 876.567 936.282 875.922 936.104 875.317C935.926 874.712 935.559 874.18 935.055 873.801C934.877 873.671 934.684 873.562 934.48 873.476Z" fill="#F1F1F1"/>
<path d="M350.266 722.226C348.95 721.653 347.891 720.616 347.29 719.312C346.689 718.008 346.588 716.529 347.007 715.156C347.075 714.945 347.117 714.728 347.134 714.507C347.172 713.878 347.007 713.253 346.663 712.725C346.318 712.198 345.813 711.795 345.222 711.577C344.63 711.358 343.984 711.337 343.38 711.514C342.775 711.692 342.244 712.06 341.864 712.563C341.734 712.741 341.625 712.935 341.54 713.139C340.967 714.455 339.93 715.515 338.626 716.116C337.322 716.717 335.843 716.817 334.47 716.399C334.26 716.331 334.042 716.288 333.822 716.271C333.192 716.233 332.568 716.399 332.04 716.743C331.512 717.088 331.11 717.593 330.891 718.184C330.673 718.776 330.652 719.422 330.829 720.026C331.007 720.631 331.374 721.163 331.878 721.542C332.056 721.673 332.249 721.781 332.454 721.867C333.77 722.44 334.829 723.477 335.43 724.781C336.031 726.085 336.132 727.564 335.713 728.937C335.645 729.148 335.602 729.366 335.586 729.586C335.547 730.215 335.713 730.84 336.057 731.368C336.402 731.896 336.907 732.298 337.498 732.517C338.089 732.735 338.735 732.757 339.34 732.579C339.945 732.401 340.476 732.034 340.855 731.53C340.986 731.352 341.095 731.158 341.18 730.954C341.753 729.638 342.79 728.579 344.094 727.977C345.397 727.376 346.876 727.276 348.249 727.694C348.46 727.762 348.678 727.805 348.898 727.822C349.527 727.86 350.152 727.695 350.68 727.35C351.207 727.006 351.61 726.5 351.828 725.909C352.046 725.317 352.068 724.672 351.891 724.067C351.713 723.462 351.345 722.93 350.842 722.551C350.664 722.421 350.47 722.312 350.266 722.226Z" fill="#F1F1F1"/>
<path d="M593.988 629.158C599.263 629.158 603.539 624.881 603.539 619.605C603.539 614.329 599.263 610.053 593.988 610.053C588.713 610.053 584.436 614.329 584.436 619.605C584.436 624.881 588.713 629.158 593.988 629.158Z" fill="#F1F1F1"/>
<path d="M1103.38 603.684C1108.66 603.684 1112.93 599.407 1112.93 594.132C1112.93 588.856 1108.66 584.579 1103.38 584.579C1098.11 584.579 1093.83 588.856 1093.83 594.132C1093.83 599.407 1098.11 603.684 1103.38 603.684Z" fill="#6C63FF"/>
<path d="M361.576 559.105C366.851 559.105 371.127 554.828 371.127 549.553C371.127 544.277 366.851 540 361.576 540C356.301 540 352.025 544.277 352.025 549.553C352.025 554.828 356.301 559.105 361.576 559.105Z" fill="#CBCBCB"/>
<path d="M324.846 993.258C362.709 993.258 393.403 962.559 393.403 924.69C393.403 886.821 362.709 856.122 324.846 856.122C286.982 856.122 256.288 886.821 256.288 924.69C256.288 962.559 286.982 993.258 324.846 993.258Z" fill="#2F2E41"/>
<path d="M314.432 978.503H293.604V1015.82H314.432V978.503Z" fill="#2F2E41"/>
<path d="M356.087 978.503H335.259V1015.82H356.087V978.503Z" fill="#2F2E41"/>
<path d="M310.96 1022.77C320.546 1022.77 328.317 1019.85 328.317 1016.26C328.317 1012.66 320.546 1009.75 310.96 1009.75C301.375 1009.75 293.604 1012.66 293.604 1016.26C293.604 1019.85 301.375 1022.77 310.96 1022.77Z" fill="#2F2E41"/>
<path d="M352.616 1021.9C362.201 1021.9 369.972 1018.99 369.972 1015.39C369.972 1011.8 362.201 1008.88 352.616 1008.88C343.03 1008.88 335.259 1011.8 335.259 1015.39C335.259 1018.99 343.03 1021.9 352.616 1021.9Z" fill="#2F2E41"/>
<path d="M398.723 894.727C413.57 879.866 421.825 864.04 417.16 859.378C412.496 854.717 396.678 862.985 381.831 877.846C366.984 892.707 358.729 908.533 363.394 913.195C368.058 917.856 383.876 909.588 398.723 894.727Z" fill="#2F2E41"/>
<path d="M269.586 917.971C274.251 913.309 265.996 897.483 251.149 882.622C236.302 867.761 220.484 859.493 215.819 864.155C211.155 868.816 219.41 884.643 234.257 899.504C249.104 914.365 264.922 922.633 269.586 917.971Z" fill="#2F2E41"/>
<path d="M321.961 938.407C334.902 938.407 345.392 927.915 345.392 914.973C345.392 902.03 334.902 891.538 321.961 891.538C309.02 891.538 298.53 902.03 298.53 914.973C298.53 927.915 309.02 938.407 321.961 938.407Z" fill="white"/>
<path d="M321.961 922.785C326.275 922.785 329.771 919.287 329.771 914.973C329.771 910.659 326.275 907.161 321.961 907.161C317.648 907.161 314.151 910.659 314.151 914.973C314.151 919.287 317.648 922.785 321.961 922.785Z" fill="#3F3D56"/>
<path d="M340.561 958.314C341.285 962.291 340.4 966.392 338.1 969.716C335.8 973.04 332.275 975.314 328.299 976.038C324.323 976.761 320.222 975.876 316.899 973.576C313.575 971.276 311.302 967.75 310.578 963.773L310.573 963.744C309.073 955.461 315.476 952.53 323.757 951.031C332.038 949.532 339.062 950.032 340.561 958.314Z" fill="white"/>
<path d="M392.07 996.653C390.527 996.655 389.048 997.269 387.956 998.36C386.865 999.451 386.251 1000.93 386.25 1002.47V1014.63C386.251 1016.18 386.865 1017.66 387.956 1018.75C389.048 1019.84 390.527 1020.45 392.07 1020.46H485.719C487.262 1020.45 488.742 1019.84 489.833 1018.75C490.924 1017.66 491.538 1016.18 491.539 1014.63V1002.47C491.538 1000.93 490.924 999.451 489.833 998.36C488.742 997.269 487.262 996.655 485.719 996.653H392.07Z" fill="#E5E5E5"/>
<path d="M445.926 988.555C445.346 988.221 444.657 988.13 444.011 988.303C443.364 988.476 442.813 988.9 442.478 989.479L438.998 995.508L435.587 988.767C435.285 988.17 434.758 987.717 434.122 987.508C433.486 987.299 432.793 987.352 432.196 987.654C431.599 987.956 431.146 988.484 430.937 989.12C430.728 989.756 430.781 990.449 431.083 991.046L433.737 996.293H432.765V1020.82H445.746V996.293H444.374L446.85 992.004C447.184 991.424 447.275 990.735 447.102 990.088C446.929 989.441 446.506 988.89 445.926 988.555Z" fill="#6C63FF"/>
<path d="M323.08 879.715C310.899 879.703 298.789 877.853 287.16 874.227C286.352 873.966 285.647 873.457 285.146 872.771C284.645 872.086 284.374 871.259 284.371 870.41V842.5C284.372 841.445 284.791 840.433 285.538 839.687C286.284 838.941 287.295 838.521 288.35 838.52H358.392C359.447 838.521 360.459 838.941 361.205 839.687C361.951 840.433 362.371 841.445 362.372 842.5V870.394C362.372 871.25 362.097 872.084 361.587 872.772C361.077 873.46 360.36 873.965 359.54 874.214C347.722 877.825 335.437 879.679 323.08 879.715Z" fill="#6C63FF"/>
<path opacity="0.2" d="M361.576 842.5V847.165L323.674 860.459C322.965 860.703 322.194 860.692 321.493 860.427L285.167 846.783V842.5C285.169 841.656 285.505 840.848 286.102 840.251C286.698 839.655 287.507 839.318 288.35 839.316H358.392C359.236 839.318 360.044 839.655 360.641 840.251C361.237 840.848 361.573 841.656 361.576 842.5Z" fill="black"/>
<path d="M322.613 855.064C322.135 855.065 321.662 854.979 321.214 854.812L266.93 834.425C266.163 834.137 265.503 833.619 265.041 832.941C264.579 832.263 264.338 831.46 264.35 830.64C264.362 829.82 264.627 829.024 265.109 828.36C265.59 827.697 266.265 827.198 267.041 826.933L318.116 809.457C318.942 809.177 319.835 809.173 320.663 809.446L377.667 828.451C378.455 828.713 379.141 829.216 379.628 829.887C380.116 830.559 380.382 831.366 380.389 832.196C380.395 833.026 380.142 833.838 379.664 834.517C379.187 835.196 378.509 835.709 377.725 835.983L323.929 854.841C323.506 854.989 323.061 855.065 322.613 855.064Z" fill="#6C63FF"/>
<path d="M273.228 853.645H271.636V830.559H320.188V832.151H273.228V853.645Z" fill="#3F3D56"/>
<path d="M272.432 858.421C274.19 858.421 275.615 856.995 275.615 855.237C275.615 853.478 274.19 852.053 272.432 852.053C270.673 852.053 269.248 853.478 269.248 855.237C269.248 856.995 270.673 858.421 272.432 858.421Z" fill="#3F3D56"/>
<path d="M721.219 993.258C759.082 993.258 789.776 962.559 789.776 924.69C789.776 886.821 759.082 856.122 721.219 856.122C683.356 856.122 652.662 886.821 652.662 924.69C652.662 962.559 683.356 993.258 721.219 993.258Z" fill="#2F2E41"/>
<path d="M710.805 978.503H689.978V1015.82H710.805V978.503Z" fill="#2F2E41"/>
<path d="M752.46 978.503H731.633V1015.82H752.46V978.503Z" fill="#2F2E41"/>
<path d="M707.334 1022.77C716.92 1022.77 724.69 1019.85 724.69 1016.26C724.69 1012.66 716.92 1009.75 707.334 1009.75C697.748 1009.75 689.978 1012.66 689.978 1016.26C689.978 1019.85 697.748 1022.77 707.334 1022.77Z" fill="#2F2E41"/>
<path d="M748.989 1021.9C758.575 1021.9 766.345 1018.99 766.345 1015.39C766.345 1011.8 758.575 1008.88 748.989 1008.88C739.404 1008.88 731.633 1011.8 731.633 1015.39C731.633 1018.99 739.404 1021.9 748.989 1021.9Z" fill="#2F2E41"/>
<path d="M795.096 894.727C809.944 879.866 818.198 864.04 813.534 859.378C808.869 854.716 793.052 862.985 778.204 877.846C763.357 892.707 755.103 908.533 759.767 913.195C764.432 917.856 780.249 909.588 795.096 894.727Z" fill="#2F2E41"/>
<path d="M660.027 958.374C672.007 941.117 677.328 924.079 671.912 920.317C666.495 916.556 652.392 927.495 640.412 944.752C628.432 962.008 623.111 979.047 628.527 982.808C633.943 986.57 648.046 975.63 660.027 958.374Z" fill="#2F2E41"/>
<path d="M718.335 938.407C731.275 938.407 741.766 927.915 741.766 914.973C741.766 902.03 731.275 891.538 718.335 891.538C705.394 891.538 694.904 902.03 694.904 914.973C694.904 927.915 705.394 938.407 718.335 938.407Z" fill="white"/>
<path d="M726.294 914.824C730.608 914.824 734.104 911.327 734.104 907.012C734.104 902.698 730.608 899.201 726.294 899.201C721.98 899.201 718.484 902.698 718.484 907.012C718.484 911.327 721.98 914.824 726.294 914.824Z" fill="#3F3D56"/>
<path d="M746.427 958.314C748.725 966.595 740.353 974.53 727.726 976.038C715.1 977.545 703 972.054 700.702 963.773L700.694 963.744C698.407 955.461 708.172 952.53 720.8 951.031C733.429 949.532 744.141 950.032 746.427 958.314Z" fill="white"/>
<path d="M697.231 884.335C685.925 888.868 673.999 891.67 661.857 892.645C661.01 892.705 660.166 892.495 659.446 892.046C658.725 891.597 658.165 890.931 657.845 890.145L647.435 864.25C647.042 863.27 647.054 862.175 647.468 861.204C647.882 860.234 648.664 859.467 649.642 859.072L714.628 832.938C715.607 832.545 716.702 832.557 717.673 832.971C718.643 833.385 719.41 834.167 719.805 835.146L730.209 861.026C730.529 861.82 730.585 862.696 730.368 863.525C730.152 864.353 729.675 865.09 729.007 865.626C719.389 873.387 708.683 879.69 697.231 884.335Z" fill="#6C63FF"/>
<path opacity="0.2" d="M719.066 835.443L720.806 839.771L690.599 866.247C690.033 866.738 689.313 867.016 688.564 867.031L649.771 867.926L648.173 863.953C647.861 863.169 647.871 862.293 648.202 861.517C648.533 860.741 649.157 860.127 649.939 859.81L714.925 833.676C715.708 833.364 716.584 833.374 717.36 833.705C718.136 834.036 718.749 834.661 719.066 835.443Z" fill="black"/>
<path d="M687.603 861.638C687.16 861.816 686.688 861.914 686.211 861.925L628.241 863.265C627.422 863.284 626.616 863.049 625.935 862.593C625.254 862.137 624.73 861.481 624.435 860.716C624.141 859.951 624.09 859.113 624.289 858.318C624.488 857.522 624.929 856.808 625.549 856.272L666.419 821.001C667.08 820.433 667.908 820.096 668.777 820.04L728.755 816.404C729.584 816.353 730.408 816.564 731.111 817.005C731.814 817.446 732.362 818.096 732.677 818.863C732.993 819.631 733.06 820.479 732.871 821.287C732.681 822.095 732.243 822.823 731.619 823.371L688.74 860.94C688.403 861.235 688.019 861.471 687.603 861.638Z" fill="#6C63FF"/>
<path d="M641.254 878.747L639.776 879.341L631.166 857.923L676.213 839.806L676.806 841.284L633.235 858.806L641.254 878.747Z" fill="#3F3D56"/>
<path d="M641.109 883.706C642.867 883.706 644.292 882.28 644.292 880.522C644.292 878.763 642.867 877.337 641.109 877.337C639.35 877.337 637.925 878.763 637.925 880.522C637.925 882.28 639.35 883.706 641.109 883.706Z" fill="#3F3D56"/>
<path d="M982.217 762.686C971.883 756.236 962.581 748.264 954.624 739.039C954.076 738.39 953.747 737.585 953.684 736.738C953.621 735.891 953.828 735.046 954.274 734.324L969.023 710.631C969.582 709.736 970.473 709.099 971.5 708.86C972.528 708.621 973.609 708.799 974.505 709.356L1033.96 746.382C1034.86 746.94 1035.5 747.832 1035.73 748.859C1035.97 749.887 1035.8 750.968 1035.24 751.864L1020.5 775.543C1020.05 776.271 1019.37 776.833 1018.58 777.147C1017.78 777.462 1016.9 777.512 1016.08 777.289C1004.13 774.108 992.726 769.188 982.217 762.686Z" fill="#6C63FF"/>
<path opacity="0.2" d="M1034.56 751.443L1032.1 755.403L992.897 746.653C992.166 746.486 991.517 746.068 991.062 745.473L967.435 714.687L969.699 711.052C970.147 710.337 970.859 709.828 971.681 709.637C972.503 709.446 973.367 709.588 974.084 710.032L1033.54 747.057C1034.26 747.505 1034.77 748.218 1034.96 749.04C1035.15 749.862 1035.01 750.726 1034.56 751.443Z" fill="black"/>
<path d="M994.848 741.513C994.442 741.26 994.085 740.937 993.794 740.559L958.485 694.557C957.986 693.906 957.7 693.117 957.666 692.298C957.632 691.479 957.851 690.669 958.295 689.979C958.739 689.29 959.384 688.754 960.144 688.445C960.903 688.137 961.74 688.07 962.539 688.255L1015.13 700.419C1015.98 700.618 1016.74 701.087 1017.3 701.756L1055.65 748.023C1056.18 748.663 1056.49 749.451 1056.55 750.279C1056.61 751.107 1056.41 751.933 1055.98 752.641C1055.55 753.349 1054.9 753.904 1054.14 754.228C1053.37 754.552 1052.53 754.629 1051.72 754.448L996.083 742.019C995.645 741.921 995.228 741.75 994.848 741.513Z" fill="#6C63FF"/>
<path d="M953.674 714.202L952.323 713.36L964.523 693.762L1005.74 719.429L1004.9 720.779L965.032 695.955L953.674 714.202Z" fill="#3F3D56"/>
<path d="M952.157 718.316C953.915 718.316 955.341 716.891 955.341 715.132C955.341 713.373 953.915 711.948 952.157 711.948C950.399 711.948 948.973 713.373 948.973 715.132C948.973 716.891 950.399 718.316 952.157 718.316Z" fill="#3F3D56"/>
<path d="M1148.07 915.244C1185.94 915.244 1216.63 884.546 1216.63 846.677C1216.63 808.808 1185.94 778.109 1148.07 778.109C1110.21 778.109 1079.52 808.808 1079.52 846.677C1079.52 884.546 1110.21 915.244 1148.07 915.244Z" fill="#2F2E41"/>
<path d="M1195.6 882.23L1177.83 893.093L1197.29 924.938L1215.06 914.075L1195.6 882.23Z" fill="#2F2E41"/>
<path d="M1160.06 903.955L1142.29 914.818L1161.75 946.663L1179.52 935.801L1160.06 903.955Z" fill="#2F2E41"/>
<path d="M1203.87 929.052C1212.05 924.053 1217.16 917.513 1215.29 914.446C1213.41 911.378 1205.26 912.944 1197.08 917.943C1188.9 922.943 1183.79 929.482 1185.67 932.55C1187.54 935.618 1195.69 934.052 1203.87 929.052Z" fill="#2F2E41"/>
<path d="M1167.88 950.037C1176.05 945.038 1181.17 938.498 1179.29 935.43C1177.42 932.363 1169.27 933.929 1161.09 938.928C1152.91 943.928 1147.8 950.467 1149.67 953.535C1151.55 956.602 1159.7 955.036 1167.88 950.037Z" fill="#2F2E41"/>
<path d="M1109.53 835.182C1114.19 830.52 1105.94 814.694 1091.09 799.833C1076.24 784.972 1060.42 776.704 1055.76 781.365C1051.09 786.027 1059.35 801.853 1074.2 816.714C1089.04 831.575 1104.86 839.843 1109.53 835.182Z" fill="#2F2E41"/>
<path d="M1240.77 904.795C1246.18 901.034 1240.86 883.995 1228.88 866.739C1216.9 849.482 1202.8 838.543 1197.38 842.304C1191.96 846.066 1197.29 863.104 1209.27 880.361C1221.25 897.617 1235.35 908.557 1240.77 904.795Z" fill="#2F2E41"/>
<path d="M1127.08 850.842C1140.02 850.842 1150.51 840.35 1150.51 827.407C1150.51 814.465 1140.02 803.973 1127.08 803.973C1114.14 803.973 1103.65 814.465 1103.65 827.407C1103.65 840.35 1114.14 850.842 1127.08 850.842Z" fill="white"/>
<path d="M1119.12 827.258C1123.43 827.258 1126.93 823.761 1126.93 819.447C1126.93 815.132 1123.43 811.635 1119.12 811.635C1114.81 811.635 1111.31 815.132 1111.31 819.447C1111.31 823.761 1114.81 827.258 1119.12 827.258Z" fill="#3F3D56"/>
<path d="M1096.91 866.498C1092.46 873.779 1098.38 883.629 1110.13 888.498C1121.88 893.368 1135 891.413 1139.44 884.132L1139.46 884.107C1143.89 876.821 1135.28 871.37 1123.53 866.508C1111.78 861.646 1101.34 859.213 1096.91 866.498Z" fill="white"/>
<path d="M1125.07 760.582C1131.19 735.925 1158.21 721.415 1185.42 728.172C1212.64 734.93 1229.73 760.397 1223.61 785.054C1217.49 809.711 1197.18 809.791 1169.97 803.033C1142.76 796.275 1118.95 785.239 1125.07 760.582Z" fill="#E6E6E6"/>
<path d="M1363.41 1024H75.5919C75.1697 1024 74.7648 1023.83 74.4662 1023.53C74.1677 1023.24 74 1022.83 74 1022.41C74 1021.99 74.1677 1021.58 74.4662 1021.28C74.7648 1020.98 75.1697 1020.82 75.5919 1020.82H1363.41C1363.83 1020.82 1364.24 1020.98 1364.53 1021.28C1364.83 1021.58 1365 1021.99 1365 1022.41C1365 1022.83 1364.83 1023.24 1364.53 1023.53C1364.24 1023.83 1363.83 1024 1363.41 1024Z" fill="#CBCBCB"/>
</g>
<g clip-path="url(#clip0)" filter="url(#filter0_d)">
<path d="M880.917 100.234C880.558 100.234 880.212 100.098 879.949 99.8524C879.687 99.6073 879.527 99.2717 879.502 98.9133C878.573 86.2917 872.912 74.4864 863.652 65.8597C854.392 57.2329 842.216 52.4211 829.561 52.387C828.046 52.387 826.455 52.464 824.832 52.6159C824.56 52.6414 824.287 52.5882 824.045 52.4626C823.803 52.337 823.602 52.1443 823.466 51.9076C817.653 41.7322 808.972 33.494 798.506 28.2214C788.04 22.9487 776.253 20.8749 764.616 22.259C752.979 23.643 742.007 28.4235 733.07 36.0039C724.133 43.5842 717.626 53.6288 714.362 64.8839C714.275 65.1855 714.091 65.4499 713.839 65.6355C713.586 65.821 713.278 65.9172 712.965 65.9089L712.587 65.8975C712.39 65.8909 712.194 65.8839 711.996 65.8839C702.397 65.914 693.096 69.2252 685.638 75.2682C678.18 81.3112 673.012 89.7227 670.992 99.1069C670.924 99.4258 670.75 99.7119 670.496 99.9172C670.243 100.123 669.927 100.235 669.601 100.235H574.421C574.045 100.234 573.684 100.083 573.419 99.8171C573.153 99.5508 573.004 99.19 573.004 98.8138C573.004 98.4377 573.153 98.0769 573.419 97.8106C573.684 97.5442 574.045 97.3941 574.421 97.3931H668.464C670.832 87.6322 676.401 78.9455 684.282 72.7194C692.163 66.4932 701.903 63.0864 711.947 63.0425C715.523 51.4765 722.38 41.1977 731.686 33.455C740.993 25.7123 752.348 20.8388 764.371 19.4267C776.395 18.0146 788.569 20.1247 799.417 25.5005C810.264 30.8763 819.316 39.2865 825.474 49.7094C826.872 49.6005 828.243 49.5457 829.561 49.5457C842.935 49.5819 855.802 54.6671 865.588 63.7838C875.373 72.9005 881.355 85.3762 882.336 98.7143C882.349 98.9004 882.325 99.0873 882.266 99.2643C882.207 99.4412 882.114 99.6048 881.991 99.7457C881.869 99.8865 881.72 100.002 881.553 100.085C881.386 100.168 881.204 100.218 881.018 100.231C880.984 100.233 880.951 100.234 880.917 100.234Z" fill="#CBCBCB"/>
<path d="M864.013 118.451H631.015C630.638 118.451 630.277 118.301 630.01 118.035C629.744 117.768 629.594 117.407 629.594 117.03C629.594 116.653 629.744 116.292 630.01 116.025C630.277 115.759 630.638 115.609 631.015 115.609H864.013C864.39 115.609 864.752 115.759 865.018 116.025C865.284 116.292 865.434 116.653 865.434 117.03C865.434 117.407 865.284 117.768 865.018 118.035C864.752 118.301 864.39 118.451 864.013 118.451Z" fill="#CBCBCB"/>
<path d="M687.844 139.051H609.704C609.517 139.052 609.332 139.015 609.159 138.944C608.986 138.873 608.829 138.768 608.697 138.636C608.564 138.504 608.459 138.348 608.388 138.175C608.316 138.002 608.279 137.817 608.279 137.63C608.279 137.444 608.316 137.259 608.388 137.086C608.459 136.913 608.564 136.756 608.697 136.625C608.829 136.493 608.986 136.388 609.159 136.317C609.332 136.246 609.517 136.209 609.704 136.21H687.844C688.22 136.211 688.58 136.361 688.846 136.627C689.111 136.894 689.261 137.254 689.261 137.63C689.261 138.007 689.111 138.367 688.846 138.634C688.58 138.9 688.22 139.05 687.844 139.051Z" fill="#CBCBCB"/>
<path d="M878.091 269.106C878.091 307.229 838.122 325.471 838.122 325.471C838.122 325.471 797.744 307.229 796.924 269.106C796.442 246.697 815.094 228.522 837.507 228.522C848.271 228.522 858.593 232.798 866.204 240.409C873.815 248.02 878.091 258.342 878.091 269.106Z" fill="#E5E5E5"/>
<path d="M851.65 327.726H824.594L821.315 314.608H854.93L851.65 327.726Z" fill="#CBCBCB"/>
<path d="M850.728 350.16H825.517V363.298H850.728V350.16Z" fill="white"/>
<path d="M850.933 363.503H825.312V349.955H850.933V363.503ZM825.722 363.093H850.523V350.365H825.722V363.093Z" fill="#CBCBCB"/>
<path d="M843.29 329.273H832.954L831.768 327.409H844.476L843.29 329.273Z" fill="#CBCBCB"/>
<path d="M825.209 327.726H824.799V347.813H825.209V327.726Z" fill="#CBCBCB"/>
<path d="M851.445 327.726H851.035V347.813H851.445V327.726Z" fill="#CBCBCB"/>
<path d="M842.231 314.386L841.981 314.061C853.824 304.929 867.941 289.283 867.941 266.611C867.95 258.67 865.615 250.903 861.228 244.284C856.84 237.666 850.597 232.49 843.279 229.405L843.439 229.028C850.831 232.143 857.138 237.372 861.569 244.058C866.001 250.744 868.36 258.59 868.351 266.611C868.351 289.45 854.147 305.197 842.231 314.386Z" fill="#CBCBCB"/>
<path d="M829.113 314.386L828.863 314.062C840.706 304.929 854.823 289.283 854.823 266.611C854.826 258.723 852.519 251.008 848.186 244.417C843.853 237.827 837.684 232.649 830.442 229.525L830.605 229.149C837.92 232.305 844.152 237.534 848.528 244.192C852.905 250.85 855.236 258.643 855.233 266.611C855.233 289.45 841.029 305.197 829.113 314.386Z" fill="#CBCBCB"/>
<path d="M845.901 314.386C833.986 305.197 819.782 289.45 819.782 266.611C819.779 258.643 822.11 250.849 826.486 244.192C830.863 237.534 837.095 232.305 844.41 229.149L844.573 229.525C837.331 232.649 831.162 237.826 826.829 244.417C822.496 251.008 820.189 258.723 820.192 266.611C820.192 289.283 834.309 304.929 846.152 314.061L845.901 314.386Z" fill="#CBCBCB"/>
<path d="M832.783 314.386C820.868 305.197 806.664 289.45 806.664 266.611C806.651 258.558 809.026 250.682 813.49 243.979C817.955 237.277 824.306 232.049 831.742 228.958L831.9 229.336C824.539 232.397 818.251 237.572 813.832 244.207C809.413 250.842 807.061 258.639 807.074 266.611C807.074 289.284 821.191 304.929 833.034 314.061L832.783 314.386Z" fill="#CBCBCB"/>
<path d="M837.712 228.522H837.302V314.608H837.712V228.522Z" fill="#CBCBCB"/>
<path d="M832.889 347.181L825.372 354.698L825.662 354.988L833.179 347.471L832.889 347.181Z" fill="#CBCBCB"/>
<path d="M836.543 347.056L825.369 358.808L825.666 359.091L836.84 347.339L836.543 347.056Z" fill="#CBCBCB"/>
<path d="M853.085 347.198H822.34V350.887H853.085V347.198Z" fill="white"/>
<path d="M853.29 351.092H822.135V346.993H853.29V351.092ZM822.545 350.682H852.88V347.403H822.545V350.682Z" fill="#CBCBCB"/>
<path d="M1217.86 321.228C1218.12 321.228 1218.37 321.13 1218.56 320.954C1218.74 320.778 1218.86 320.538 1218.88 320.281C1219.54 311.234 1223.6 302.772 1230.24 296.588C1236.87 290.405 1245.6 286.956 1254.67 286.931C1255.76 286.931 1256.9 286.987 1258.06 287.095C1258.26 287.114 1258.45 287.076 1258.63 286.986C1258.8 286.896 1258.94 286.757 1259.04 286.588C1263.21 279.294 1269.43 273.389 1276.93 269.61C1284.43 265.83 1292.88 264.344 1301.22 265.336C1309.57 266.328 1317.43 269.755 1323.84 275.188C1330.24 280.622 1334.91 287.821 1337.25 295.889C1337.31 296.105 1337.44 296.295 1337.62 296.428C1337.8 296.561 1338.02 296.63 1338.25 296.624L1338.52 296.615C1338.66 296.611 1338.8 296.606 1338.94 296.606C1345.82 296.627 1352.49 299.001 1357.84 303.332C1363.18 307.664 1366.89 313.693 1368.33 320.42C1368.38 320.648 1368.51 320.853 1368.69 321C1368.87 321.148 1369.1 321.228 1369.33 321.228H1437.55C1437.69 321.228 1437.82 321.202 1437.95 321.151C1438.07 321.1 1438.18 321.025 1438.28 320.931C1438.37 320.836 1438.45 320.724 1438.5 320.6C1438.55 320.476 1438.58 320.344 1438.58 320.21C1438.58 320.076 1438.55 319.943 1438.5 319.819C1438.45 319.695 1438.37 319.583 1438.28 319.488C1438.18 319.394 1438.07 319.319 1437.95 319.268C1437.82 319.217 1437.69 319.191 1437.55 319.191H1370.15C1368.45 312.195 1364.46 305.968 1358.81 301.505C1353.16 297.042 1346.18 294.601 1338.98 294.569C1336.41 286.279 1331.5 278.911 1324.83 273.361C1318.16 267.811 1310.02 264.318 1301.4 263.306C1292.78 262.294 1284.06 263.806 1276.28 267.659C1268.51 271.513 1262.02 277.541 1257.6 285.012C1256.6 284.934 1255.62 284.895 1254.67 284.895C1245.09 284.921 1235.86 288.566 1228.85 295.1C1221.84 301.635 1217.55 310.578 1216.84 320.138C1216.84 320.272 1216.85 320.406 1216.89 320.532C1216.94 320.659 1217 320.777 1217.09 320.877C1217.18 320.978 1217.29 321.061 1217.41 321.121C1217.53 321.181 1217.66 321.216 1217.79 321.225C1217.81 321.227 1217.84 321.228 1217.86 321.228Z" fill="#CBCBCB"/>
<path d="M1229.98 334.285H1396.99C1397.26 334.285 1397.52 334.178 1397.71 333.987C1397.9 333.796 1398.01 333.537 1398.01 333.267C1398.01 332.997 1397.9 332.738 1397.71 332.547C1397.52 332.356 1397.26 332.248 1396.99 332.248H1229.98C1229.71 332.248 1229.45 332.356 1229.26 332.547C1229.07 332.738 1228.96 332.997 1228.96 333.267C1228.96 333.537 1229.07 333.796 1229.26 333.987C1229.45 334.178 1229.71 334.285 1229.98 334.285Z" fill="#CBCBCB"/>
<path d="M1356.25 349.051H1412.26C1412.53 349.05 1412.79 348.943 1412.98 348.752C1413.17 348.561 1413.28 348.302 1413.28 348.033C1413.28 347.763 1413.17 347.505 1412.98 347.314C1412.79 347.123 1412.53 347.015 1412.26 347.014H1356.25C1356.12 347.014 1355.99 347.041 1355.86 347.092C1355.74 347.143 1355.63 347.218 1355.53 347.313C1355.44 347.407 1355.36 347.52 1355.31 347.643C1355.26 347.767 1355.24 347.899 1355.24 348.033C1355.24 348.167 1355.26 348.299 1355.31 348.423C1355.36 348.546 1355.44 348.658 1355.53 348.753C1355.63 348.847 1355.74 348.922 1355.86 348.974C1355.99 349.025 1356.12 349.051 1356.25 349.051Z" fill="#CBCBCB"/>
<path d="M1095.99 594.768H1092.64L1091.04 581.839H1095.99V594.768Z" fill="#9F616A"/>
<path d="M1096.85 598.018H1086.04V597.881C1086.04 596.766 1086.48 595.696 1087.27 594.907C1088.06 594.119 1089.13 593.675 1090.25 593.674H1096.85V598.018Z" fill="#2F2E41"/>
<path d="M1139.22 588.416L1136.34 590.143L1128.32 579.881L1132.56 577.333L1139.22 588.416Z" fill="#9F616A"/>
<path d="M1132.36 596.328L1132.29 596.211C1131.72 595.254 1131.55 594.109 1131.82 593.027C1132.09 591.944 1132.77 591.013 1133.73 590.438L1139.39 587.038L1141.63 590.761L1132.36 596.328Z" fill="#2F2E41"/>
<path d="M1096.86 592.1L1096.81 592.1C1095.17 592.095 1093.55 592.001 1091.92 591.819C1091.31 591.758 1090.64 591.692 1089.83 591.625L1089.8 591.62C1089.25 591.456 1089.24 586.291 1089.47 568.609C1089.59 559.553 1089.72 549.289 1089.56 542.752L1089.56 542.687L1089.61 542.645C1092.53 540.089 1096.01 538.259 1099.76 537.305C1103.52 536.351 1107.45 536.3 1111.23 537.155L1111.29 537.168L1111.32 537.22C1114.62 542.794 1119.59 550.823 1124.4 558.589C1135.45 576.414 1138.6 581.657 1138.26 582.052L1138.22 582.084C1137.46 582.461 1136.9 582.752 1136.41 582.998C1134.51 583.985 1132.55 584.868 1130.55 585.643L1130.46 585.679L1130.4 585.609C1119.19 573.331 1109.87 559.616 1104.1 546.937C1103.43 551.265 1102.61 556.917 1101.75 562.889C1099.26 580.062 1097.58 591.37 1096.9 592.059L1096.86 592.1Z" fill="#2F2E41"/>
<path d="M1311.09 145C1311.09 331 1116.09 420 1116.09 420C1116.09 420 919.091 331 915.091 145C912.74 35.6729 1003.74 -53 1113.09 -53C1222.44 -53 1311.09 35.6477 1311.09 145Z" fill="#6C63FF"/>
<path d="M1120.27 593.307H1116.16L1114.21 577.453H1120.27V593.307Z" fill="#FFB7B7"/>
<path d="M1113.23 592.132H1121.15V597.123H1108.24C1108.24 596.468 1108.37 595.819 1108.62 595.213C1108.87 594.608 1109.23 594.058 1109.7 593.594C1110.16 593.131 1110.71 592.763 1111.32 592.512C1111.92 592.261 1112.57 592.132 1113.23 592.132Z" fill="#2F2E41"/>
<path d="M1135.7 593.307H1131.59L1129.63 577.453H1135.7L1135.7 593.307Z" fill="#FFB7B7"/>
<path d="M1128.65 592.132H1136.58V597.123H1123.66C1123.66 595.8 1124.18 594.53 1125.12 593.594C1126.06 592.658 1127.33 592.132 1128.65 592.132Z" fill="#2F2E41"/>
<path d="M1135.19 546.089C1134.75 545.804 1134.38 545.425 1134.1 544.98C1133.81 544.534 1133.63 544.033 1133.57 543.51C1133.5 542.988 1133.55 542.458 1133.71 541.956C1133.88 541.455 1134.14 540.995 1134.5 540.609L1131.8 502.202L1139.59 502.958L1139.81 540.57C1140.41 541.215 1140.77 542.061 1140.79 542.947C1140.82 543.833 1140.52 544.698 1139.95 545.378C1139.38 546.058 1138.58 546.506 1137.71 546.637C1136.83 546.768 1135.94 546.573 1135.19 546.089Z" fill="#FFB7B7"/>
<path d="M1120.08 585.32L1115.55 585.104C1115.17 585.086 1114.81 584.921 1114.54 584.642C1114.27 584.364 1114.12 583.994 1114.12 583.608L1113.8 537.825C1113.8 537.608 1113.85 537.393 1113.94 537.195C1114.02 536.997 1114.16 536.82 1114.32 536.677C1114.48 536.534 1114.68 536.429 1114.88 536.367C1115.09 536.306 1115.31 536.29 1115.53 536.321L1133.63 538.949C1133.99 538.999 1134.31 539.177 1134.55 539.449C1134.79 539.721 1134.92 540.07 1134.92 540.431L1137.25 582.853C1137.25 583.053 1137.21 583.25 1137.14 583.434C1137.06 583.619 1136.95 583.786 1136.81 583.928C1136.67 584.069 1136.5 584.181 1136.32 584.258C1136.14 584.334 1135.94 584.374 1135.74 584.374H1130.86C1130.5 584.375 1130.15 584.247 1129.88 584.013C1129.61 583.779 1129.43 583.455 1129.37 583.099C1129.37 583.099 1125.69 551.279 1125.18 551.297C1124.67 551.307 1121.65 583.992 1121.65 583.992C1121.6 584.358 1121.43 584.695 1121.15 584.94C1120.88 585.185 1120.52 585.321 1120.15 585.322C1120.13 585.322 1120.1 585.321 1120.08 585.32Z" fill="#2F2E41"/>
<path d="M1133.56 515.108C1133.38 514.976 1133.23 514.806 1133.12 514.608C1133.01 514.411 1132.95 514.192 1132.94 513.967L1132.37 503.616C1132.31 502.59 1132.64 501.58 1133.28 500.78C1133.92 499.98 1134.84 499.447 1135.85 499.283C1136.87 499.12 1137.91 499.337 1138.77 499.894C1139.63 500.451 1140.26 501.308 1140.53 502.299L1143.04 511.554C1143.14 511.94 1143.09 512.352 1142.89 512.699C1142.69 513.046 1142.36 513.3 1141.98 513.405L1134.84 515.341C1134.62 515.4 1134.39 515.41 1134.17 515.369C1133.95 515.329 1133.74 515.24 1133.56 515.108Z" fill="#3F3D56"/>
<path d="M1126.89 490.506C1131.44 490.506 1135.13 486.819 1135.13 482.271C1135.13 477.723 1131.44 474.037 1126.89 474.037C1122.35 474.037 1118.66 477.723 1118.66 482.271C1118.66 486.819 1122.35 490.506 1126.89 490.506Z" fill="#FFB7B7"/>
<path d="M1132.72 488.786C1132.38 489.157 1131.93 489.422 1131.44 489.55C1130.95 489.679 1130.44 489.664 1129.95 489.509C1129.47 489.354 1129.05 489.064 1128.72 488.674C1128.4 488.285 1128.19 487.811 1128.13 487.308C1128.12 487.135 1128.12 486.96 1128.13 486.787C1128.24 485.796 1128.81 484.897 1128.67 483.852C1128.64 483.592 1128.54 483.344 1128.39 483.131C1127.17 481.492 1124.29 483.865 1123.14 482.381C1122.43 481.471 1123.26 480.038 1122.72 479.021C1122 477.679 1119.88 478.341 1118.54 477.606C1117.06 476.788 1117.15 474.513 1118.13 473.129C1118.76 472.312 1119.57 471.644 1120.49 471.174C1121.41 470.705 1122.43 470.444 1123.46 470.411C1125.54 470.363 1127.59 470.764 1129.5 471.589C1131.74 472.319 1133.72 473.693 1135.2 475.541C1135.96 476.752 1136.44 478.117 1136.61 479.538C1136.78 480.959 1136.63 482.399 1136.17 483.755C1135.67 485.418 1133.97 487.45 1132.72 488.786Z" fill="#2F2E41"/>
<path d="M1135.11 496.006C1134.97 495.903 1134.82 495.802 1134.67 495.703C1133.88 495.177 1133.03 494.757 1132.13 494.454V492.291H1125.76V494.298C1123.65 494.881 1121.75 496.071 1120.31 497.722C1118.87 499.372 1117.95 501.409 1117.66 503.581L1113.32 535.783C1113.29 535.984 1113.3 536.189 1113.36 536.385C1113.41 536.581 1113.5 536.764 1113.63 536.923C1113.76 537.081 1113.91 537.212 1114.09 537.309C1114.26 537.405 1114.46 537.465 1114.66 537.484C1117.69 537.878 1120.62 538.881 1123.26 540.433C1125.18 541.496 1127.34 542.047 1129.54 542.034C1131.28 542.027 1133 541.72 1134.64 541.125C1134.92 541.023 1135.16 540.841 1135.33 540.602C1135.51 540.363 1135.61 540.078 1135.62 539.782C1135.78 536.317 1136.69 518.478 1139.35 507.597C1139.87 505.463 1139.74 503.223 1138.99 501.16C1138.23 499.097 1136.88 497.304 1135.11 496.006Z" fill="#3F3D56"/>
<path d="M1182.09 431H1050.09L1034.09 367H1198.09L1182.09 431Z" fill="#3F3D56"/>
<path d="M1177.59 540.451H1054.59V604.549H1177.59V540.451Z" fill="white"/>
<path d="M1178.59 605.549H1053.59V539.451H1178.59V605.549ZM1055.59 603.549H1176.59V541.451H1055.59V603.549Z" fill="#3F3D56"/>
<path d="M1141.3 438.547H1090.88L1085.09 429.453H1147.09L1141.3 438.547Z" fill="#3F3D56"/>
<path d="M1053.09 431H1051.09V529H1053.09V431Z" fill="#3F3D56"/>
<path d="M1181.09 431H1179.09V529H1181.09V431Z" fill="#3F3D56"/>
<path d="M1136.14 365.916L1134.92 364.332C1192.7 319.776 1261.57 243.444 1261.57 132.829C1261.62 94.087 1250.22 56.1941 1228.82 23.9022C1207.41 -8.38972 1176.95 -33.6429 1141.25 -48.6904L1142.03 -50.5322C1178.09 -35.332 1208.86 -9.82258 1230.49 22.797C1252.11 55.4165 1263.62 93.6939 1263.57 132.829C1263.57 244.256 1194.27 321.085 1136.14 365.916Z" fill="#3F3D56"/>
<path d="M1072.14 365.917L1070.92 364.333C1128.69 319.776 1197.57 243.444 1197.57 132.829C1197.59 94.3475 1186.33 56.7046 1165.19 24.5498C1144.05 -7.60507 1113.95 -32.8633 1078.62 -48.1049L1079.41 -49.9409C1115.11 -34.5446 1145.51 -9.03004 1166.86 23.4511C1188.21 55.9322 1199.59 93.957 1199.57 132.829C1199.57 244.257 1130.27 321.086 1072.14 365.917Z" fill="#3F3D56"/>
<path d="M1154.04 365.916C1095.91 321.086 1026.61 244.257 1026.61 132.829C1026.6 93.9567 1037.97 55.9316 1059.32 23.4504C1080.68 -9.03088 1111.08 -34.5453 1146.77 -49.9413L1147.56 -48.1054C1112.23 -32.864 1082.13 -7.60583 1060.99 24.5491C1039.85 56.7041 1028.6 94.3472 1028.61 132.829C1028.61 243.444 1097.49 319.776 1155.26 364.332L1154.04 365.916Z" fill="#3F3D56"/>
<path d="M1090.04 365.916C1031.91 321.086 962.612 244.257 962.612 132.829C962.547 93.5397 974.137 55.1142 995.916 22.4142C1017.7 -10.2858 1048.69 -35.7908 1084.96 -50.8735L1085.73 -49.0278C1049.82 -34.0967 1019.14 -8.84804 997.582 23.5234C976.021 55.8949 964.548 93.9344 964.612 132.829C964.612 243.445 1033.49 319.776 1091.26 364.332L1090.04 365.916Z" fill="#3F3D56"/>
<path d="M1114.09 -53H1112.09V367H1114.09V-53Z" fill="#3F3D56"/>
<path d="M1090.56 525.918L1053.88 562.592L1055.3 564.006L1091.97 527.332L1090.56 525.918Z" fill="#3F3D56"/>
<path d="M1108.39 525.308L1053.87 582.645L1055.32 584.023L1109.84 526.686L1108.39 525.308Z" fill="#3F3D56"/>
<path d="M1189.09 526H1039.09V544H1189.09V526Z" fill="white"/>
<path d="M1190.09 545H1038.09V525H1190.09V545ZM1040.09 543H1188.09V527H1040.09V543Z" fill="#3F3D56"/>
<path d="M1097.05 498.449C1097.09 498.63 1097.12 498.814 1097.13 498.999L1111.54 507.308L1115.04 505.292L1118.77 510.178L1111.28 515.515L1094.85 502.553C1094.18 502.801 1093.45 502.839 1092.76 502.662C1092.06 502.486 1091.44 502.102 1090.97 501.563C1090.5 501.024 1090.21 500.355 1090.13 499.645C1090.05 498.935 1090.19 498.217 1090.53 497.588C1090.87 496.958 1091.39 496.447 1092.02 496.121C1092.66 495.795 1093.38 495.671 1094.09 495.764C1094.8 495.858 1095.46 496.165 1095.99 496.644C1096.52 497.124 1096.89 497.753 1097.05 498.449H1097.05Z" fill="#FFB7B7"/>
<path d="M1112.05 506.601C1112.03 506.377 1112.05 506.151 1112.13 505.939C1112.2 505.727 1112.32 505.535 1112.48 505.376L1119.81 498.044C1120.54 497.318 1121.51 496.886 1122.53 496.833C1123.56 496.779 1124.57 497.106 1125.37 497.753C1126.17 498.399 1126.7 499.318 1126.86 500.332C1127.02 501.347 1126.8 502.385 1126.24 503.246L1121.02 511.29C1120.8 511.625 1120.46 511.861 1120.07 511.944C1119.68 512.027 1119.27 511.952 1118.93 511.734L1112.73 507.708C1112.54 507.586 1112.38 507.424 1112.26 507.232C1112.15 507.04 1112.07 506.825 1112.05 506.601Z" fill="#3F3D56"/>
<path d="M1012.32 435.228C1012.06 435.228 1011.81 435.13 1011.63 434.954C1011.44 434.778 1011.32 434.538 1011.31 434.281C1010.64 425.234 1006.58 416.772 999.945 410.588C993.307 404.405 984.58 400.956 975.508 400.931C974.423 400.931 973.282 400.987 972.119 401.095C971.924 401.114 971.728 401.076 971.555 400.986C971.381 400.896 971.237 400.757 971.14 400.588C966.973 393.294 960.751 387.389 953.249 383.61C945.747 379.83 937.298 378.344 928.957 379.336C920.616 380.328 912.751 383.755 906.345 389.188C899.939 394.622 895.275 401.821 892.935 409.889C892.873 410.105 892.741 410.295 892.56 410.428C892.379 410.561 892.158 410.63 891.934 410.624L891.663 410.615C891.522 410.611 891.381 410.606 891.239 410.606C884.359 410.627 877.693 413.001 872.346 417.332C867 421.664 863.296 427.693 861.848 434.42C861.8 434.648 861.675 434.853 861.493 435C861.312 435.148 861.085 435.228 860.852 435.228H792.627C792.493 435.228 792.36 435.202 792.237 435.151C792.113 435.1 792 435.025 791.905 434.931C791.81 434.836 791.735 434.724 791.683 434.6C791.632 434.476 791.606 434.343 791.606 434.209C791.606 434.075 791.632 433.943 791.683 433.819C791.735 433.695 791.81 433.583 791.905 433.488C792 433.394 792.113 433.319 792.237 433.268C792.36 433.217 792.493 433.191 792.627 433.191H860.037C861.734 426.195 865.725 419.968 871.374 415.505C877.024 411.042 884.005 408.601 891.204 408.569C893.767 400.279 898.683 392.911 905.353 387.361C912.024 381.811 920.163 378.318 928.781 377.306C937.4 376.294 946.126 377.806 953.901 381.659C961.676 385.513 968.165 391.541 972.579 399.012C973.581 398.934 974.564 398.895 975.509 398.895C985.095 398.921 994.318 402.566 1001.33 409.1C1008.35 415.635 1012.63 424.578 1013.34 434.138C1013.35 434.272 1013.33 434.406 1013.29 434.532C1013.24 434.659 1013.18 434.777 1013.09 434.877C1013 434.978 1012.9 435.061 1012.78 435.121C1012.66 435.181 1012.53 435.216 1012.39 435.225C1012.37 435.227 1012.34 435.228 1012.32 435.228Z" fill="#CBCBCB"/>
<path d="M1000.2 448.285H833.193C833.059 448.285 832.926 448.259 832.802 448.208C832.678 448.157 832.566 448.082 832.471 447.988C832.376 447.893 832.301 447.781 832.249 447.657C832.198 447.533 832.172 447.401 832.172 447.267C832.172 447.133 832.198 447 832.249 446.876C832.301 446.752 832.376 446.64 832.471 446.545C832.566 446.451 832.678 446.376 832.802 446.325C832.926 446.274 833.059 446.248 833.193 446.248H1000.2C1000.47 446.248 1000.73 446.356 1000.92 446.547C1001.11 446.738 1001.22 446.997 1001.22 447.267C1001.22 447.537 1001.11 447.796 1000.92 447.987C1000.73 448.178 1000.47 448.285 1000.2 448.285Z" fill="#CBCBCB"/>
<path d="M873.927 463.051H817.918C817.784 463.052 817.651 463.026 817.527 462.975C817.403 462.924 817.29 462.849 817.196 462.754C817.101 462.659 817.025 462.547 816.974 462.423C816.923 462.3 816.896 462.167 816.896 462.033C816.896 461.899 816.923 461.766 816.974 461.642C817.025 461.519 817.101 461.406 817.196 461.312C817.29 461.217 817.403 461.142 817.527 461.091C817.651 461.04 817.784 461.014 817.918 461.014H873.927C874.061 461.014 874.194 461.04 874.318 461.091C874.442 461.142 874.555 461.217 874.649 461.312C874.744 461.406 874.82 461.519 874.871 461.642C874.922 461.766 874.949 461.899 874.949 462.033C874.949 462.167 874.922 462.3 874.871 462.423C874.82 462.547 874.744 462.659 874.649 462.754C874.555 462.849 874.442 462.924 874.318 462.975C874.194 463.026 874.061 463.052 873.927 463.051Z" fill="#CBCBCB"/>
</g>
<path d="M437.986 446.486C437.986 504.246 377.431 531.883 377.431 531.883C377.431 531.883 316.256 504.246 315.014 446.486C314.284 412.536 342.542 385 376.5 385C384.574 385 392.57 386.59 400.03 389.68C407.489 392.77 414.268 397.299 419.977 403.009C425.687 408.718 430.216 415.497 433.306 422.956C436.396 430.416 437.986 438.412 437.986 446.486Z" fill="#E5E5E5"/>
<path d="M397.927 535.299H356.936L351.967 515.425H402.895L397.927 535.299Z" fill="#CBCBCB"/>
<path d="M396.529 569.288H358.334V589.192H396.529V569.288Z" fill="white"/>
<path d="M396.84 589.503H358.023V568.977H396.84V589.503ZM358.644 588.882H396.219V569.598H358.644V588.882Z" fill="#CBCBCB"/>
<path d="M385.261 537.643H369.602L367.805 534.819H387.058L385.261 537.643Z" fill="#CBCBCB"/>
<path d="M357.868 535.299H357.247V565.732H357.868V535.299Z" fill="#CBCBCB"/>
<path d="M397.616 535.299H396.995V565.732H397.616V535.299Z" fill="#CBCBCB"/>
<path d="M383.657 515.088L383.278 514.596C401.22 500.76 422.608 477.056 422.608 442.706C422.622 430.676 419.084 418.909 412.437 408.881C405.79 398.853 396.331 391.011 385.244 386.338L385.486 385.766C396.685 390.487 406.241 398.408 412.955 408.538C419.669 418.667 423.243 430.554 423.229 442.706C423.229 477.309 401.709 501.167 383.657 515.088Z" fill="#CBCBCB"/>
<path d="M363.782 515.089L363.403 514.597C381.345 500.76 402.734 477.057 402.734 442.706C402.738 430.757 399.243 419.067 392.678 409.082C386.114 399.097 376.768 391.253 365.796 386.52L366.042 385.95C377.126 390.731 386.566 398.654 393.197 408.741C399.828 418.827 403.36 430.635 403.355 442.706C403.355 477.309 381.835 501.167 363.782 515.089Z" fill="#CBCBCB"/>
<path d="M389.217 515.088C371.165 501.167 349.645 477.309 349.645 442.706C349.64 430.635 353.171 418.827 359.803 408.741C366.434 398.654 375.874 390.731 386.958 385.95L387.205 386.52C376.232 391.253 366.886 399.096 360.322 409.082C353.757 419.067 350.261 430.757 350.266 442.706C350.266 477.056 371.654 500.76 389.596 514.596L389.217 515.088Z" fill="#CBCBCB"/>
<path d="M369.343 515.088C351.29 501.167 329.771 477.309 329.771 442.706C329.751 430.506 333.35 418.573 340.113 408.419C346.876 398.264 356.5 390.344 367.765 385.66L368.005 386.234C356.852 390.87 347.325 398.711 340.63 408.763C333.935 418.816 330.372 430.628 330.392 442.706C330.392 477.057 351.78 500.76 369.722 514.596L369.343 515.088Z" fill="#CBCBCB"/>
<path d="M376.81 385H376.189V515.425H376.81V385Z" fill="#CBCBCB"/>
<path d="M369.503 564.775L358.114 576.163L358.553 576.602L369.942 565.214L369.503 564.775Z" fill="#CBCBCB"/>
<path d="M375.039 564.585L358.11 582.39L358.56 582.818L375.489 565.013L375.039 564.585Z" fill="#CBCBCB"/>
<path d="M400.101 564.8H353.52V570.39H400.101V564.8Z" fill="white"/>
<path d="M400.411 570.7H353.21V564.49H400.411V570.7ZM353.831 570.079H399.79V565.111H353.831V570.079Z" fill="#CBCBCB"/>
<g opacity="0.7" filter="url(#filter1_f)">
<path d="M225.14 141.642C225.14 180.761 184.129 199.479 184.129 199.479C184.129 199.479 142.696 180.761 141.855 141.642C141.361 118.649 160.499 100 183.498 100C188.966 100 194.381 101.077 199.433 103.17C204.486 105.263 209.076 108.33 212.943 112.197C216.81 116.064 219.877 120.654 221.97 125.707C224.063 130.759 225.14 136.174 225.14 141.642Z" fill="#E5E5E5"/>
<path d="M198.01 201.792H170.248L166.883 188.332H201.374L198.01 201.792Z" fill="#CBCBCB"/>
<path d="M197.063 224.812H171.194V238.293H197.063V224.812Z" fill="white"/>
<path d="M197.273 238.503H170.984V224.601H197.273V238.503ZM171.404 238.082H196.853V225.022H171.404V238.082Z" fill="#CBCBCB"/>
<path d="M189.431 203.38H178.826L177.609 201.467H190.648L189.431 203.38Z" fill="#CBCBCB"/>
<path d="M170.879 201.793H170.458V222.404H170.879V201.793Z" fill="#CBCBCB"/>
<path d="M197.799 201.793H197.378V222.404H197.799V201.793Z" fill="#CBCBCB"/>
<path d="M188.345 188.104L188.088 187.771C200.24 178.4 214.725 162.347 214.725 139.083C214.735 130.935 212.338 122.965 207.837 116.174C203.335 109.382 196.928 104.071 189.42 100.906L189.584 100.519C197.168 103.716 203.64 109.081 208.187 115.941C212.735 122.802 215.155 130.852 215.146 139.083C215.146 162.518 200.571 178.676 188.345 188.104Z" fill="#CBCBCB"/>
<path d="M174.885 188.105L174.628 187.771C186.779 178.401 201.265 162.347 201.265 139.083C201.268 130.989 198.901 123.073 194.455 116.31C190.009 109.547 183.679 104.235 176.248 101.03L176.415 100.643C183.921 103.881 190.315 109.248 194.806 116.079C199.297 122.91 201.689 130.907 201.685 139.083C201.685 162.518 187.111 178.676 174.885 188.105Z" fill="#CBCBCB"/>
<path d="M192.111 188.104C179.884 178.676 165.31 162.518 165.31 139.083C165.306 130.907 167.698 122.91 172.189 116.079C176.68 109.247 183.074 103.881 190.581 100.643L190.748 101.029C183.316 104.235 176.987 109.547 172.541 116.31C168.095 123.072 165.727 130.989 165.73 139.083C165.73 162.347 180.216 178.4 192.367 187.771L192.111 188.104Z" fill="#CBCBCB"/>
<path d="M178.65 188.104C166.424 178.676 151.85 162.518 151.85 139.083C151.836 130.82 154.273 122.738 158.854 115.861C163.435 108.983 169.952 103.619 177.582 100.447L177.744 100.835C170.191 103.976 163.739 109.286 159.204 116.094C154.67 122.902 152.257 130.903 152.27 139.083C152.27 162.347 166.756 178.401 178.907 187.771L178.65 188.104Z" fill="#CBCBCB"/>
<path d="M183.708 100H183.287V188.332H183.708V100Z" fill="#CBCBCB"/>
<path d="M178.759 221.755L171.045 229.468L171.343 229.766L179.056 222.053L178.759 221.755Z" fill="#CBCBCB"/>
<path d="M182.508 221.627L171.043 233.686L171.347 233.976L182.813 221.917L182.508 221.627Z" fill="#CBCBCB"/>
<path d="M199.482 221.773H167.934V225.558H199.482V221.773Z" fill="white"/>
<path d="M199.692 225.769H167.724V221.562H199.692V225.769ZM168.145 225.348H199.271V221.983H168.145V225.348Z" fill="#CBCBCB"/>
</g>
<g opacity="0.5" filter="url(#filter2_f)">
<path d="M416.022 45.0081C416.022 69.4399 390.408 81.1304 390.408 81.1304C390.408 81.1304 364.531 69.4399 364.006 45.0081C363.697 30.6475 375.65 19 390.014 19C393.429 19 396.811 19.6727 399.967 20.9797C403.122 22.2868 405.989 24.2025 408.404 26.6176C410.819 29.0326 412.735 31.8998 414.042 35.0552C415.349 38.2107 416.022 41.5926 416.022 45.0081Z" fill="#E5E5E5"/>
<path d="M399.077 82.5752H381.739L379.637 74.1686H401.179L399.077 82.5752Z" fill="#CBCBCB"/>
<path d="M398.486 96.952H382.33V105.372H398.486V96.952Z" fill="white"/>
<path d="M398.618 105.503H382.198V96.8207H398.618V105.503ZM382.461 105.24H398.355V97.0834H382.461V105.24Z" fill="#CBCBCB"/>
<path d="M393.72 83.5667H387.096L386.336 82.3721H394.48L393.72 83.5667Z" fill="#CBCBCB"/>
<path d="M382.133 82.5753H381.87V95.448H382.133V82.5753Z" fill="#CBCBCB"/>
<path d="M398.946 82.5753H398.683V95.448H398.946V82.5753Z" fill="#CBCBCB"/>
<path d="M393.041 74.0262L392.881 73.8182C400.47 67.9655 409.517 57.939 409.517 43.4093C409.523 38.3204 408.027 33.3431 405.215 29.1014C402.403 24.8598 398.402 21.5426 393.713 19.5661L393.815 19.3242C398.552 21.3208 402.594 24.6715 405.434 28.9562C408.274 33.2409 409.786 38.2688 409.78 43.4093C409.78 58.0458 400.677 68.1376 393.041 74.0262Z" fill="#CBCBCB"/>
<path d="M384.635 74.0263L384.474 73.8182C392.064 67.9656 401.111 57.9391 401.111 43.4093C401.113 38.3547 399.634 33.4101 396.857 29.1865C394.081 24.9628 390.127 21.645 385.486 19.643L385.59 19.4018C390.279 21.4242 394.272 24.7756 397.077 29.0421C399.882 33.3087 401.375 38.3034 401.373 43.4093C401.373 58.0458 392.271 68.1377 384.635 74.0263Z" fill="#CBCBCB"/>
<path d="M395.393 74.0262C387.757 68.1376 378.655 58.0458 378.655 43.4093C378.653 38.3033 380.146 33.3086 382.951 29.042C385.756 24.7755 389.749 21.4241 394.438 19.4017L394.542 19.6429C389.901 21.6449 385.947 24.9627 383.171 29.1864C380.394 33.41 378.915 38.3546 378.917 43.4093C378.917 57.9391 387.964 67.9655 395.554 73.8181L395.393 74.0262Z" fill="#CBCBCB"/>
<path d="M386.987 74.0262C379.35 68.1376 370.248 58.0459 370.248 43.4093C370.239 38.2486 371.762 33.2012 374.623 28.9059C377.483 24.6107 381.554 21.2605 386.319 19.2793L386.421 19.5218C381.703 21.483 377.673 24.7995 374.841 29.0517C372.009 33.3038 370.502 38.3004 370.511 43.4093C370.511 57.9392 379.558 67.9656 387.147 73.8181L386.987 74.0262Z" fill="#CBCBCB"/>
<path d="M390.145 19H389.883V74.1686H390.145V19Z" fill="#CBCBCB"/>
<path d="M387.054 95.0431L382.237 99.8604L382.423 100.046L387.24 95.2289L387.054 95.0431Z" fill="#CBCBCB"/>
<path d="M389.396 94.9629L382.235 102.494L382.425 102.675L389.586 95.1439L389.396 94.9629Z" fill="#CBCBCB"/>
<path d="M399.997 95.0539H380.294V97.4183H399.997V95.0539Z" fill="white"/>
<path d="M400.128 97.5496H380.162V94.9225H400.128V97.5496ZM380.425 97.2869H399.865V95.1853H380.425V97.2869Z" fill="#CBCBCB"/>
</g>
<defs>
<filter id="filter0_d" x="559" y="-57" width="893.573" height="686.549" filterUnits="userSpaceOnUse" color-interpolation-filters="sRGB">
<feFlood flood-opacity="0" result="BackgroundImageFix"/>
<feColorMatrix in="SourceAlpha" type="matrix" values="0 0 0 0 0 0 0 0 0 0 0 0 0 0 0 0 0 0 127 0"/>
<feOffset dy="10"/>
<feGaussianBlur stdDeviation="7"/>
<feColorMatrix type="matrix" values="0 0 0 0 0 0 0 0 0 0 0 0 0 0 0 0 0 0 0.35 0"/>
<feBlend mode="normal" in2="BackgroundImageFix" result="effect1_dropShadow"/>
<feBlend mode="normal" in="SourceGraphic" in2="effect1_dropShadow" result="shape"/>
</filter>
<filter id="filter1_f" x="137.846" y="96" width="91.2942" height="146.503" filterUnits="userSpaceOnUse" color-interpolation-filters="sRGB">
<feFlood flood-opacity="0" result="BackgroundImageFix"/>
<feBlend mode="normal" in="SourceGraphic" in2="BackgroundImageFix" result="shape"/>
<feGaussianBlur stdDeviation="2" result="effect1_foregroundBlur"/>
</filter>
<filter id="filter2_f" x="354" y="9" width="72.022" height="106.503" filterUnits="userSpaceOnUse" color-interpolation-filters="sRGB">
<feFlood flood-opacity="0" result="BackgroundImageFix"/>
<feBlend mode="normal" in="SourceGraphic" in2="BackgroundImageFix" result="shape"/>
<feGaussianBlur stdDeviation="5" result="effect1_foregroundBlur"/>
</filter>
<radialGradient id="paint0_radial" cx="0" cy="0" r="1" gradientUnits="userSpaceOnUse" gradientTransform="translate(720 -28) rotate(99.639) scale(1119.81 1574.73)">
<stop stop-color="#9284FB"/>
<stop offset="1" stop-color="#111687"/>
</radialGradient>
<clipPath id="clip0">
<rect width="865.573" height="658.549" fill="white" transform="translate(573 -53)"/>
</clipPath>
</defs>
</svg>
